<?xml version="1.0" encoding="UTF-8"?>
<!-- Generator: visioncortex VTracer 0.6.3 -->
<svg version="1.1" xmlns="http://www.w3.org/2000/svg" width="24" height="24">
<path d="M0 0 C0.66 0 1.32 0 2 0 C2 0.66 2 1.32 2 2 C2.8 2.01 3.6 2.03 4.42 2.04 C16.06 2.55 25.54 6.27 35 13 C35 13.66 35 14.32 35 15 C35.57 15.25 36.15 15.5 36.74 15.76 C39.3 17.16 41.1 18.77 43.19 20.81 C44.23 21.81 44.23 21.81 45.29 22.83 C47.21 25.26 47.64 26.96 48 30 C48.66 30 49.32 30 50 30 C50.84 31.78 50.84 31.78 51.69 33.59 C55.41 41.5 59.16 49.39 63.12 57.19 C66.15 63.15 68.87 69.19 71.49 75.34 C73.6 80.23 76.05 84.85 78.67 89.5 C80.38 92.72 81.66 96.04 82.96 99.45 C84.49 103.2 86.35 106.76 88.18 110.38 C90.43 114.82 92.55 119.32 94.69 123.81 C95.11 124.71 95.54 125.6 95.97 126.52 C96.86 128.39 97.75 130.26 98.63 132.13 C100.93 136.96 103.25 141.79 105.56 146.62 C108.98 153.76 112.38 160.91 115.75 168.06 C118.9 174.74 122.14 181.35 125.49 187.92 C126.55 190.07 127.54 192.25 128.48 194.45 C130.02 198.05 131.73 201.51 133.5 205 C135.84 209.61 137.99 214.24 140 219 C144.03 228.32 148.19 237.55 152.79 246.6 C155.81 252.56 158.69 258.59 161.56 264.62 C165.14 272.15 168.78 279.64 172.56 287.06 C174.16 290.33 175.58 293.65 177 297 C181.03 306.33 185.19 315.56 189.79 324.62 C192.74 330.43 195.57 336.3 198.38 342.19 C198.84 343.16 199.3 344.14 199.78 345.14 C202.09 349.97 204.38 354.81 206.68 359.65 C207.54 361.45 208.39 363.26 209.25 365.06 C209.66 365.93 210.07 366.79 210.5 367.69 C213.42 373.83 216.43 379.93 219.53 385.99 C220.82 388.63 222 391.29 223.14 394 C228.09 405.56 233.38 416.98 239.09 428.18 C241.67 433.28 244.1 438.46 246.56 443.62 C249.89 450.62 253.25 457.6 256.78 464.5 C258 467 259.11 469.53 260.19 472.09 C264.41 482.03 268.84 491.85 273.72 501.48 C276.84 507.63 279.83 513.84 282.81 520.06 C283.32 521.12 283.83 522.18 284.35 523.27 C286.92 528.64 289.48 534 292.04 539.37 C292.53 540.39 293.01 541.41 293.52 542.46 C294.43 544.38 295.35 546.3 296.26 548.21 C298.34 552.57 300.45 556.91 302.63 561.22 C304.57 565.09 306.33 569 308 573 C312.03 582.33 316.2 591.56 320.79 600.62 C323.72 606.4 326.53 612.22 329.31 618.06 C329.77 619.03 330.24 620 330.71 620.99 C332.14 624 333.57 627 335 630 C336.94 634.06 338.87 638.13 340.81 642.19 C341.27 643.15 341.73 644.12 342.21 645.11 C345 650.94 347.83 656.75 350.78 662.5 C351.98 664.96 353.06 667.45 354.13 669.97 C359.03 681.4 364.25 692.71 369.88 703.8 C373.4 710.73 376.72 717.74 380.06 724.76 C382.21 729.28 384.39 733.79 386.64 738.26 C388.05 741.04 389.39 743.82 390.59 746.69 C392.09 750.21 393.77 753.59 395.5 757 C397.52 760.97 399.44 764.95 401.17 769.06 C402.14 771.34 403.17 773.59 404.19 775.85 C404.58 776.7 404.97 777.55 405.37 778.43 C406.17 780.19 406.97 781.95 407.77 783.71 C414.64 798.86 415.89 812.93 411 829 C406.2 840.88 399.34 851.29 389 859 C388.01 859 387.02 859 386 859 C386 859.66 386 860.32 386 861 C384.36 861.78 382.71 862.55 381.06 863.31 C380.15 863.74 379.23 864.17 378.29 864.61 C370.58 867.86 364.15 869.51 355.75 869.38 C354.83 869.36 353.91 869.35 352.96 869.34 C334.82 868.91 321.64 861.99 309 849 C300.5 839.74 295.98 827.09 291 815.71 C288.3 809.56 285.34 803.58 282.25 797.62 C281 795 281 795 281 793 C263.74 792.98 246.47 792.96 229.21 792.95 C221.19 792.94 213.17 792.94 205.16 792.92 C198.16 792.91 191.17 792.91 184.18 792.91 C180.48 792.9 176.78 792.9 173.09 792.89 C168.94 792.89 164.8 792.89 160.66 792.89 C159.45 792.88 158.24 792.88 157 792.88 C150.53 792.88 144.16 793.14 137.73 793.76 C132.79 794.19 127.83 794.29 122.88 794.44 C111.5 794.83 100.18 795.61 88.83 796.54 C84.26 796.91 79.7 797.2 75.12 797.44 C63.05 798.15 51.02 799.65 39 801 C37.66 801.15 37.66 801.15 36.3 801.3 C35.51 801.39 34.71 801.48 33.9 801.57 C33.15 801.65 32.41 801.74 31.64 801.82 C30.23 801.98 28.82 802.14 27.4 802.3 C23.53 802.74 19.66 803.13 15.78 803.5 C14.89 803.58 14 803.66 13.08 803.75 C11.38 803.91 9.68 804.07 7.98 804.22 C3.24 804.66 -1.26 805.46 -5.89 806.55 C-8.89 807.19 -11.88 807.39 -14.94 807.56 C-19.13 807.69 -19.13 807.69 -23 809 C-24.86 809.08 -26.72 809.11 -28.57 809.13 C-41.53 809.52 -41.53 809.52 -52.65 815.36 C-57.17 821.06 -60.46 827.38 -63.56 833.94 C-67.32 841.91 -71.76 849.42 -76.62 856.75 C-79.23 860.7 -81.83 864.63 -84.16 868.75 C-85.63 871.36 -87.17 873.8 -88.88 876.25 C-91.02 879.42 -92.91 882.62 -94.69 886 C-97.79 891.84 -101.38 897.32 -105.04 902.81 C-108.08 907.4 -110.63 912.04 -113 917 C-113.66 917 -114.32 917 -115 917 C-115.12 917.58 -115.25 918.15 -115.38 918.75 C-116.01 921.02 -116.89 922.93 -118 925 C-118.66 925 -119.32 925 -120 925 C-120.09 925.71 -120.19 926.41 -120.29 927.14 C-121.13 930.52 -122.55 932.88 -124.44 935.81 C-125.36 937.28 -125.36 937.28 -126.31 938.77 C-126.87 939.51 -127.42 940.24 -128 941 C-128.66 941 -129.32 941 -130 941 C-130.24 941.61 -130.49 942.21 -130.74 942.84 C-132.25 945.44 -133.54 946.18 -136.19 947.56 C-137.29 948.15 -137.29 948.15 -138.42 948.75 C-140.86 949.93 -143.34 950.99 -145.84 952.05 C-150.72 954.2 -155.51 956.56 -160.31 958.88 C-161.39 959.39 -162.47 959.91 -163.58 960.44 C-164.64 960.95 -165.7 961.46 -166.8 961.99 C-167.84 962.49 -168.89 962.99 -169.96 963.51 C-173.63 965.31 -177.26 967.2 -180.87 969.12 C-183 970 -183 970 -187 970 C-187 970.66 -187 971.32 -187 972 C-192.44 974.47 -192.44 974.47 -198 977 C-196.01 983.38 -193.07 989.09 -190 995 C-189.39 996.17 -189.39 996.17 -188.78 997.36 C-185.81 1002.87 -182.37 1008.02 -178.86 1013.2 C-177.39 1015.41 -176.03 1017.61 -174.75 1019.94 C-173.05 1022.92 -171.19 1025.36 -169 1028 C-168.06 1029.25 -167.12 1030.5 -166.19 1031.75 C-161.12 1038.52 -156.01 1045.14 -150.29 1051.37 C-149 1053 -149 1053 -149 1055 C-148.34 1055 -147.68 1055 -147 1055 C-142 1060.48 -142 1060.48 -142 1063 C-141.04 1063.4 -141.04 1063.4 -140.06 1063.81 C-138 1065 -138 1065 -137 1068 C-135.68 1068.7 -134.35 1069.36 -133 1070 C-131.22 1071.62 -131.22 1071.62 -129.5 1073.44 C-127.57 1075.44 -125.8 1077.15 -123.56 1078.81 C-122.79 1079.4 -122.79 1079.4 -122 1080 C-122 1080.66 -122 1081.32 -122 1082 C-121.42 1082.25 -120.84 1082.5 -120.25 1082.75 C-111.54 1087.58 -106.93 1097.49 -104.22 1106.64 C-102.96 1112.04 -102.89 1116.59 -104 1122 C-104.13 1122.73 -104.25 1123.46 -104.38 1124.21 C-106.27 1134.19 -111.27 1143.35 -119.23 1149.81 C-126.42 1154.63 -134.34 1158.12 -142.17 1161.75 C-146.48 1163.74 -150.71 1165.85 -154.94 1168 C-161.88 1171.53 -168.95 1174.73 -176.09 1177.86 C-179.71 1179.45 -183.24 1181.07 -186.65 1183.08 C-189.39 1184.65 -192.07 1185.93 -194.98 1187.13 C-199.54 1189.09 -203.97 1191.34 -208.44 1193.5 C-218.19 1198.21 -228 1202.78 -237.86 1207.26 C-242.9 1209.56 -247.89 1211.91 -252.81 1214.44 C-265.02 1220.58 -277.74 1224.55 -291.27 1220.14 C-305.86 1214.06 -312.47 1206 -319 1192 C-319.87 1190.29 -320.75 1188.58 -321.62 1186.88 C-323.63 1182.87 -325.31 1178.81 -326.92 1174.64 C-328.07 1171.83 -329.37 1169.11 -330.69 1166.38 C-339.01 1148.48 -344.97 1129.5 -351.09 1110.78 C-352.37 1106.88 -353.66 1102.98 -355 1099.11 C-356.62 1094.37 -358.15 1089.71 -359.19 1084.81 C-359.59 1081.23 -359.59 1081.23 -361 1080 C-361.46 1077.99 -361.92 1075.98 -362.35 1073.96 C-363.11 1070.48 -363.94 1067.02 -364.77 1063.56 C-371.64 1034.86 -377.14 1006.26 -381 977 C-381.13 976.02 -381.26 975.04 -381.4 974.02 C-382.64 964.42 -383.31 954.84 -383.66 945.16 C-383.79 941.6 -383.98 938.16 -384.49 934.63 C-385.22 929.46 -385.36 924.28 -385.56 919.06 C-385.61 918 -385.65 916.93 -385.69 915.83 C-385.8 913.22 -385.9 910.61 -386 908 C-391.87 910.03 -397.57 912.21 -403.19 914.88 C-408.01 917.15 -412.86 919.12 -417.88 920.94 C-424.46 923.34 -430.76 926.13 -437.09 929.15 C-442.11 931.54 -447.2 933.77 -452.29 936.01 C-455.91 937.6 -459.5 939.22 -463.05 940.96 C-469.85 944.26 -476.36 946.92 -483.8 948.49 C-485.96 948.79 -485.96 948.79 -487 950 C-516.24 954.01 -544.97 950.46 -569.38 932.56 C-584.44 920.67 -584.44 920.67 -586 916 C-586.99 915.67 -587.98 915.34 -589 915 C-590.19 912.44 -590.19 912.44 -591 910 C-591.66 910 -592.32 910 -593 910 C-593.4 908.55 -593.4 908.55 -593.81 907.06 C-594.4 905.55 -594.4 905.55 -595 904 C-595.99 903.67 -596.98 903.34 -598 903 C-599.04 901.4 -599.04 901.4 -599.98 899.31 C-600.34 898.54 -600.69 897.76 -601.06 896.97 C-601.43 896.13 -601.8 895.3 -602.19 894.44 C-602.99 892.7 -603.79 890.96 -604.59 889.21 C-605.19 887.9 -605.19 887.9 -605.81 886.56 C-607.54 882.83 -609.39 879.17 -611.25 875.5 C-613.85 870.36 -616.31 865.17 -618.65 859.91 C-620.37 856.21 -622.22 852.58 -624.06 848.94 C-626.66 843.82 -628.97 838.73 -631 833.36 C-632.59 829.61 -634.64 826.13 -636.63 822.57 C-637.76 820.45 -638.65 818.46 -639.44 816.19 C-641.42 810.51 -644.31 805.23 -647.04 799.88 C-648.62 796.78 -650.19 793.67 -651.75 790.56 C-652.3 789.47 -652.85 788.38 -653.42 787.25 C-654.5 785.04 -655.52 782.79 -656.48 780.53 C-658.03 776.94 -659.73 773.48 -661.5 770 C-663.85 765.39 -665.99 760.77 -668 756 C-668.62 754.64 -669.25 753.29 -669.88 751.94 C-678.71 731.79 -681.97 712 -678.69 690.12 C-678.57 689.34 -678.45 688.55 -678.33 687.75 C-677.47 682.54 -676.01 677.87 -674 673 C-673.42 671.51 -673.42 671.51 -672.82 669.98 C-665.94 653.07 -655.52 635.46 -640 625 C-639.34 625 -638.68 625 -638 625 C-638 624.34 -638 623.68 -638 623 C-632.93 618.92 -627.6 616.22 -621.69 613.56 C-615.64 610.78 -609.79 607.94 -604.2 604.29 C-601.88 602.93 -599.48 601.9 -596.99 600.86 C-593.11 599.18 -589.34 597.27 -585.56 595.38 C-584.68 594.94 -583.81 594.5 -582.9 594.05 C-576.76 590.95 -570.76 587.68 -564.8 584.26 C-560.24 581.65 -555.6 579.25 -550.88 576.94 C-544.6 573.86 -538.55 570.52 -532.52 567.01 C-528.79 564.86 -524.99 562.87 -521.19 560.88 C-516.31 558.31 -511.68 555.56 -507.16 552.42 C-503.88 550.26 -500.42 548.48 -496.96 546.63 C-492.69 544.28 -488.57 541.71 -484.43 539.12 C-481.73 537.44 -479.01 535.8 -476.27 534.17 C-472.69 532.03 -469.14 529.85 -465.61 527.64 C-464.71 527.08 -463.82 526.52 -462.9 525.95 C-461.07 524.8 -459.24 523.65 -457.42 522.5 C-456.53 521.95 -455.64 521.4 -454.73 520.83 C-453.55 520.08 -453.55 520.08 -452.34 519.33 C-449.95 517.97 -447.57 516.96 -445 516 C-445 515.34 -445 514.68 -445 514 C-442.9 512.63 -442.9 512.63 -439.94 511 C-434.87 508.13 -429.97 505.1 -425.12 501.88 C-424.51 501.47 -423.89 501.06 -423.25 500.64 C-420.35 498.69 -417.67 496.72 -414.99 494.45 C-412.37 492.3 -409.79 490.68 -406.83 489.06 C-403.49 487.12 -400.46 484.76 -397.38 482.44 C-386.12 474 -386.12 474 -383 474 C-383 473.34 -383 472.68 -383 472 C-380.84 470.31 -378.69 468.74 -376.44 467.19 C-375.83 466.76 -375.22 466.34 -374.59 465.9 C-373.36 465.03 -372.12 464.17 -370.88 463.32 C-368.95 461.97 -367.06 460.57 -365.16 459.18 C-362 457 -362 457 -360 457 C-360 456.34 -360 455.68 -360 455 C-357.44 452.7 -356.52 452 -353 452 C-353 451.34 -353 450.68 -353 450 C-351.12 448.48 -351.12 448.48 -348.44 446.62 C-343.73 443.29 -339.18 439.81 -334.69 436.19 C-333.41 435.16 -332.14 434.13 -330.86 433.11 C-329.91 432.34 -329.91 432.34 -328.94 431.55 C-325.2 428.56 -321.43 425.61 -317.66 422.65 C-315.15 420.69 -312.67 418.72 -310.23 416.69 C-308 415 -308 415 -306 415 C-306 414.34 -306 413.68 -306 413 C-305.34 413 -304.68 413 -304 413 C-304 412.34 -304 411.68 -304 411 C-302.66 410.12 -301.31 409.24 -299.96 408.38 C-296.62 406.03 -293.72 403.18 -290.71 400.43 C-287.16 397.24 -283.45 394.27 -279.74 391.28 C-276.13 388.27 -272.7 385.08 -269.29 381.85 C-266.93 379.94 -264.81 379.08 -262 378 C-260.87 375.98 -260.87 375.98 -260 374 C-259.01 373.67 -258.02 373.34 -257 373 C-257 372.34 -257 371.68 -257 371 C-255.71 369.66 -255.71 369.66 -253.81 368.06 C-253.09 367.45 -252.37 366.83 -251.62 366.2 C-250.76 365.47 -249.89 364.75 -249 364 C-247.34 362.61 -245.69 361.22 -244.03 359.82 C-242.91 358.88 -241.78 357.94 -240.66 357 C-237.26 354.15 -234.09 351.18 -231 348 C-229.56 346.54 -228.13 345.08 -226.69 343.62 C-225.99 342.92 -225.29 342.21 -224.57 341.48 C-222.5 339.49 -220.41 337.61 -218.23 335.74 C-213.03 331.22 -208.27 326.29 -203.47 321.35 C-202.45 320.31 -202.45 320.31 -201.41 319.25 C-200.81 318.63 -200.2 318 -199.57 317.36 C-198 316 -198 316 -196 316 C-195.73 315.36 -195.46 314.72 -195.19 314.06 C-194 312 -194 312 -191 311 C-190.67 310.34 -190.34 309.68 -190 309 C-189 307 -189 307 -186 306 C-185.67 305.34 -185.34 304.68 -185 304 C-184 302 -184 302 -181 301 C-180.67 300.34 -180.34 299.68 -180 299 C-179 297 -179 297 -176 296 C-175.31 294.68 -174.65 293.34 -174 292 C-172.8 290.69 -171.54 289.42 -170.25 288.19 C-167.54 285.56 -165.02 282.91 -162.62 280 C-161.76 279.01 -160.89 278.02 -160 277 C-159.34 277 -158.68 277 -158 277 C-157.76 276.44 -157.53 275.87 -157.29 275.29 C-155.71 272.48 -153.76 270.6 -151.44 268.38 C-148.31 265.49 -148.31 265.49 -146 262 C-145.34 262 -144.68 262 -144 262 C-143.77 261.46 -143.55 260.93 -143.31 260.38 C-141.54 257.18 -139.46 254.71 -137 252 C-136.34 252 -135.68 252 -135 252 C-134.75 251.44 -134.5 250.89 -134.25 250.31 C-131.64 245.48 -127.85 241.85 -124 238 C-117.1 230.74 -117.1 230.74 -111 222.81 C-110.34 221.88 -109.68 220.96 -109 220 C-108.34 220 -107.68 220 -107 220 C-106.64 219.19 -106.64 219.19 -106.28 218.36 C-104.66 215.37 -102.65 212.89 -100.5 210.25 C-99.71 209.27 -98.91 208.28 -98.09 207.27 C-97.06 206.14 -97.06 206.14 -96 205 C-95.34 205 -94.68 205 -94 205 C-93.73 204.26 -93.46 203.51 -93.19 202.75 C-92.05 200.11 -90.91 198.14 -89 196 C-88.34 196 -87.68 196 -87 196 C-86.69 195.38 -86.38 194.76 -86.06 194.12 C-85.38 192.75 -84.69 191.38 -84 190 C-83.34 190 -82.68 190 -82 190 C-81.73 189.43 -81.46 188.86 -81.19 188.27 C-79.96 185.92 -78.57 183.88 -77 181.75 C-76.48 181.04 -75.97 180.34 -75.44 179.61 C-74.73 178.81 -74.73 178.81 -74 178 C-73.34 178 -72.68 178 -72 178 C-71.77 177.29 -71.54 176.59 -71.3 175.86 C-69.74 172.43 -67.72 170.04 -65.25 167.19 C-61.68 163.03 -58.3 158.82 -55.16 154.33 C-54.58 153.67 -54.58 153.67 -54 153 C-53.34 153 -52.68 153 -52 153 C-51.73 152.26 -51.46 151.51 -51.19 150.75 C-50.05 148.11 -48.91 146.14 -47 144 C-46.34 144 -45.68 144 -45 144 C-44.81 143.34 -44.63 142.68 -44.44 142 C-42.67 138.32 -40.24 135.92 -37.36 133.06 C-35.79 131.1 -35.79 131.1 -36.06 128.79 C-37.39 124.85 -39.03 121.1 -40.75 117.31 C-41.3 116.1 -41.3 116.1 -41.85 114.86 C-44.04 110.04 -46.32 105.27 -48.71 100.54 C-57.85 82.47 -63.69 64.59 -59 44.06 C-53.6 27.91 -42.06 14.82 -27 7 C-18.3 2.9 -9.45 1.9 0 1 C0 0.67 0 0.34 0 0 Z M-18.38 46.12 C-22.26 51.27 -24.25 56.48 -23.79 62.97 C-22.13 71.69 -18.22 79.17 -14.1 86.93 C-12.27 90.38 -10.51 93.88 -8.75 97.38 C-8.41 98.05 -8.07 98.72 -7.72 99.41 C-5.57 103.74 -3.69 108.1 -1.97 112.62 C-0.46 116.31 1.38 119.82 3.18 123.38 C5.43 127.82 7.55 132.32 9.69 136.81 C10.32 138.15 10.32 138.15 10.97 139.52 C11.86 141.39 12.75 143.26 13.63 145.13 C15.93 149.96 18.25 154.79 20.56 159.62 C26.59 172.23 32.6 184.84 38.5 197.5 C46.65 215 46.65 215 55.19 232.31 C57.64 237.14 59.9 242 62 247 C64.35 252.6 66.94 258 69.69 263.4 C76.53 276.93 82.95 290.68 89.34 304.42 C94.96 316.51 100.68 328.55 106.42 340.58 C108.15 344.22 109.89 347.87 111.61 351.51 C115.82 360.39 120.06 369.24 124.53 377.99 C126.14 381.28 127.57 384.62 129 388 C133.01 397.28 137.15 406.46 141.72 415.47 C144.88 421.71 147.92 428.01 150.94 434.31 C151.45 435.39 151.97 436.46 152.5 437.56 C155.99 444.87 159.45 452.18 162.9 459.5 C165.67 465.36 168.55 471.15 171.49 476.92 C173.12 480.24 174.56 483.6 176 487 C180.01 496.28 184.15 505.47 188.72 514.48 C191.84 520.63 194.83 526.84 197.81 533.06 C198.32 534.12 198.83 535.18 199.35 536.27 C201.92 541.64 204.48 547 207.04 552.37 C207.53 553.39 208.01 554.41 208.52 555.46 C209.43 557.38 210.35 559.3 211.26 561.21 C213.34 565.57 215.45 569.91 217.63 574.22 C219.57 578.09 221.33 582 223 586 C227 595.28 231.15 604.47 235.72 613.48 C238.84 619.63 241.83 625.84 244.81 632.06 C245.32 633.12 245.83 634.18 246.35 635.27 C248.92 640.64 251.48 646 254.04 651.37 C254.77 652.9 254.77 652.9 255.52 654.46 C256.43 656.38 257.35 658.3 258.26 660.21 C260.34 664.57 262.45 668.91 264.63 673.22 C266.57 677.09 268.32 681.01 270 685 C275.38 697.15 280.95 709.17 287 721 C288.26 723.48 289.5 725.96 290.75 728.44 C291.3 729.53 291.85 730.62 292.42 731.75 C293.5 733.96 294.52 736.21 295.48 738.47 C297.03 742.06 298.73 745.52 300.5 749 C302.84 753.61 304.99 758.24 307 763 C311.02 772.32 315.17 781.55 319.78 790.59 C321.84 794.64 323.82 798.72 325.74 802.83 C326.22 803.85 326.69 804.87 327.19 805.92 C328.12 807.92 329.05 809.93 329.97 811.93 C335.51 823.85 335.51 823.85 346 831 C351.9 832.75 358.44 833.01 364.12 830.5 C368.93 827.81 373.82 823.39 375.66 818.09 C377.39 807.35 374.79 799.56 370 790 C369.68 789.36 369.37 788.72 369.04 788.06 C367.38 784.7 365.7 781.35 364.01 778 C359.55 769.16 355.48 760.15 351.56 751.06 C349.03 745.2 346.3 739.48 343.41 733.79 C339.37 725.81 335.52 717.73 331.66 709.67 C329.24 704.63 326.81 699.6 324.29 694.62 C322.91 691.88 321.6 689.14 320.41 686.31 C318.92 682.81 317.24 679.45 315.5 676.06 C311.82 668.81 311.82 668.81 310.5 665 C308.54 659.38 305.65 654.16 302.96 648.88 C301.38 645.78 299.81 642.67 298.25 639.56 C297.42 637.92 297.42 637.92 296.58 636.25 C295.27 633.56 294.08 630.85 292.92 628.1 C290.79 623.23 288.43 618.47 286.12 613.69 C285.61 612.61 285.09 611.53 284.56 610.42 C282.18 605.48 279.78 600.54 277.3 595.64 C275.38 591.82 273.65 587.95 272 584 C268 574.72 263.85 565.53 259.28 556.52 C256.16 550.37 253.17 544.16 250.19 537.94 C249.68 536.88 249.17 535.82 248.65 534.73 C246.08 529.36 243.52 524 240.96 518.63 C240.47 517.61 239.99 516.59 239.48 515.54 C238.57 513.62 237.65 511.7 236.74 509.79 C234.66 505.43 232.55 501.09 230.37 496.78 C228.43 492.91 226.69 488.99 225 485 C223.69 482.18 222.34 479.37 221 476.56 C217.4 469.01 213.9 461.42 210.44 453.81 C206.16 444.43 201.69 435.18 197 426 C195.89 423.81 194.79 421.63 193.69 419.44 C193.24 418.55 192.79 417.66 192.32 416.75 C191.35 414.72 190.43 412.67 189.55 410.6 C187.99 406.99 186.28 403.5 184.5 400 C182.48 396.03 180.57 392.07 178.84 387.97 C173.91 376.4 168.59 364.99 162.89 353.78 C158.93 345.94 155.23 337.97 151.45 330.04 C150.02 327.04 148.57 324.04 147.13 321.04 C142.9 312.26 138.72 303.49 134.81 294.56 C132.12 288.41 129.25 282.37 126.21 276.38 C121.77 267.62 117.59 258.75 113.38 249.89 C112.08 247.16 110.77 244.43 109.46 241.7 C105.97 234.41 102.49 227.1 99.14 219.74 C98.66 218.68 98.18 217.62 97.68 216.53 C96.76 214.5 95.84 212.47 94.93 210.43 C92.3 204.62 89.45 199.02 86.31 193.46 C85.06 191.12 84.06 188.79 83.12 186.31 C81.46 181.94 79.44 177.79 77.31 173.62 C74.15 167.41 71.21 161.12 68.38 154.75 C65.1 147.4 61.67 140.16 58 133 C56.6 130.23 55.2 127.46 53.81 124.69 C53.48 124.03 53.15 123.37 52.8 122.69 C50.71 118.52 48.82 114.3 47 110 C42.24 99.25 37.38 88.55 32.05 78.07 C28.7 71.48 25.55 64.79 22.41 58.09 C17.06 46.6 17.06 46.6 6.69 39.69 C-2.88 37.9 -11.32 38.76 -18.38 46.12 Z M-19 168 C-20.76 170 -22.32 171.97 -23.88 174.12 C-24.73 175.27 -25.58 176.42 -26.43 177.57 C-26.85 178.14 -27.27 178.71 -27.7 179.29 C-29.02 181.02 -30.4 182.66 -31.82 184.3 C-34.21 186.68 -34.21 186.68 -34 189 C-34.66 189 -35.32 189 -36 189 C-37.45 190.89 -37.45 190.89 -38.88 193.25 C-41 196.57 -43.15 199.26 -46 202 C-46 202.66 -46 203.32 -46 204 C-46.66 204 -47.32 204 -48 204 C-48.33 205.32 -48.66 206.64 -49 208 C-49.66 208 -50.32 208 -51 208 C-53.4 210.64 -53.4 210.64 -54 214 C-54.66 214 -55.32 214 -56 214 C-57.38 215.55 -57.38 215.55 -58.75 217.56 C-61.29 221.08 -63.98 224.34 -66.9 227.55 C-68.2 228.96 -68.2 228.96 -68 231 C-68.66 231 -69.32 231 -70 231 C-71.78 232.91 -71.78 232.91 -73.56 235.31 C-74.18 236.11 -74.8 236.91 -75.44 237.74 C-77.15 240 -77.15 240 -78 243 C-78.66 243 -79.32 243 -80 243 C-81.56 244.69 -83.05 246.46 -84.5 248.25 C-85.29 249.22 -86.09 250.2 -86.91 251.2 C-88.59 253.45 -89.88 255.45 -91 258 C-91.66 258 -92.32 258 -93 258 C-94.33 259.49 -95.59 261.05 -96.81 262.62 C-101.22 268.16 -105.93 273.31 -110.83 278.4 C-113.94 281.22 -113.94 281.22 -115 285 C-115.66 285 -116.32 285 -117 285 C-118.53 286.49 -118.53 286.49 -120.12 288.46 C-123.98 293 -128.03 297.35 -132.12 301.69 C-133.16 302.79 -133.16 302.79 -134.21 303.91 C-137.09 306.96 -139.97 309.99 -142.99 312.89 C-145.23 314.76 -145.23 314.76 -145 317 C-145.99 317.33 -146.98 317.66 -148 318 C-148 318.66 -148 319.32 -148 320 C-148.66 320 -149.32 320 -150 320 C-150 320.66 -150 321.32 -150 322 C-150.66 322 -151.32 322 -152 322 C-153.67 323.33 -153.67 323.33 -155 325 C-155 325.66 -155 326.32 -155 327 C-155.66 327 -156.32 327 -157 327 C-158.64 328.62 -158.64 328.62 -160.31 330.69 C-163.08 333.95 -165.93 337.01 -169 340 C-169.87 340.89 -170.73 341.77 -171.62 342.69 C-174 345 -174 345 -177 347 C-177 347.66 -177 348.32 -177 349 C-177.66 349 -178.32 349 -179 349 C-180.67 350.33 -180.67 350.33 -182 352 C-182 352.66 -182 353.32 -182 354 C-182.99 354.33 -183.98 354.66 -185 355 C-185 355.66 -185 356.32 -185 357 C-185.56 357.23 -186.12 357.47 -186.7 357.71 C-189.57 359.32 -191.47 361.32 -193.75 363.69 C-198.62 368.66 -203.68 373.26 -209.05 377.69 C-209.69 378.23 -210.34 378.76 -211 379.31 C-211.58 379.78 -212.15 380.25 -212.75 380.74 C-214.23 381.94 -214.23 381.94 -214 384 C-214.66 384 -215.32 384 -216 384 C-216 384.66 -216 385.32 -216 386 C-216.87 386.4 -216.87 386.4 -217.77 386.81 C-220.03 388.01 -221.81 389.34 -223.75 391 C-224.36 391.52 -224.98 392.03 -225.61 392.56 C-227.23 393.91 -227.23 393.91 -227 396 C-227.56 396.25 -228.11 396.5 -228.69 396.75 C-231.42 398.23 -233.68 399.93 -236 402 C-236 402.66 -236 403.32 -236 404 C-236.99 404 -237.98 404 -239 404 C-240.73 405.6 -242.38 407.28 -244 409 C-250.66 415.3 -257.45 421.32 -264.62 427.03 C-265.41 427.68 -266.19 428.33 -267 429 C-267.78 429.64 -268.57 430.28 -269.38 430.94 C-271.28 432.86 -271.28 432.86 -270.77 435.26 C-269.91 438.34 -268.71 441 -267.3 443.87 C-266.76 444.99 -266.21 446.12 -265.65 447.28 C-265.06 448.48 -264.47 449.68 -263.88 450.88 C-262.98 452.72 -262.08 454.56 -261.18 456.41 C-260.31 458.21 -259.43 460 -258.56 461.79 C-255.63 467.83 -252.82 473.92 -250 480 C-238.52 504.63 -238.52 504.63 -226.47 528.99 C-225.19 531.61 -224.04 534.24 -222.91 536.92 C-220.85 541.62 -218.55 546.2 -216.31 550.81 C-212.67 558.35 -209.1 565.89 -205.75 573.56 C-203.07 579.68 -200.22 585.67 -197.2 591.63 C-189.73 606.4 -182.77 621.42 -175.92 636.49 C-173.01 642.87 -169.96 649.16 -166.78 655.41 C-164.52 659.87 -162.47 664.4 -160.5 669 C-158.27 674.19 -155.93 679.28 -153.38 684.31 C-144.79 701.25 -136.67 718.41 -128.82 735.7 C-125.95 742 -122.94 748.22 -119.78 754.39 C-117.44 759.02 -115.35 763.73 -113.31 768.5 C-110.97 774.01 -108.4 779.06 -105 784 C-103.19 783.86 -101.37 783.71 -99.56 783.56 C-98.55 783.48 -97.54 783.4 -96.5 783.32 C-94.06 783.27 -94.06 783.27 -93 782 C-90.9 781.64 -88.8 781.34 -86.69 781.06 C-81.87 780.4 -77.05 779.72 -72.25 778.94 C-70.8 778.7 -70.8 778.7 -69.33 778.46 C-66.99 778.1 -66.99 778.1 -65 777 C-63.38 776.73 -61.75 776.51 -60.12 776.32 C-59.14 776.19 -58.15 776.07 -57.14 775.94 C-55.08 775.69 -53.02 775.44 -50.96 775.19 C-49.96 775.07 -48.96 774.94 -47.94 774.82 C-46.59 774.65 -46.59 774.65 -45.21 774.49 C-42.55 774.08 -39.95 773.59 -37.32 773.04 C-31.89 771.93 -26.44 771.22 -20.94 770.56 C-19.91 770.44 -18.88 770.31 -17.81 770.18 C-14.54 769.78 -11.27 769.39 -8 769 C-5.84 768.74 -3.67 768.47 -1.51 768.21 C8.55 766.99 18.61 765.8 28.68 764.7 C32.2 764.32 35.72 763.92 39.24 763.49 C49.54 762.23 59.84 761.29 70.19 760.5 C71.01 760.44 71.83 760.37 72.68 760.31 C77.69 759.92 82.7 759.55 87.71 759.17 C89.82 759.01 91.93 758.85 94.04 758.69 C109.48 757.49 124.9 756.77 140.38 756.38 C141.19 756.35 142 756.33 142.84 756.31 C149.77 756.14 156.69 755.98 163.61 756.01 C164.35 756.02 165.08 756.02 165.84 756.02 C167.85 756.04 169.85 756.06 171.86 756.08 C175.03 756.15 175.03 756.15 178 755 C179.5 754.91 181.01 754.87 182.52 754.87 C183.88 754.87 183.88 754.87 185.28 754.86 C186.26 754.86 187.24 754.87 188.25 754.87 C189.76 754.87 189.76 754.87 191.31 754.86 C193.44 754.86 195.58 754.87 197.71 754.87 C200.99 754.87 204.26 754.87 207.53 754.86 C209.6 754.86 211.68 754.87 213.75 754.87 C214.73 754.87 215.71 754.86 216.72 754.86 C217.63 754.86 218.55 754.87 219.48 754.87 C220.29 754.87 221.09 754.87 221.91 754.87 C224 755 224 755 227 756 C228.32 756 229.64 756 231 756 C241.33 756 251.67 756 262 756 C261.45 752.84 260.78 750.2 259.29 747.36 C258.79 746.38 258.79 746.38 258.27 745.38 C257.91 744.7 257.56 744.02 257.19 743.31 C254.89 738.83 252.66 734.41 250.88 729.69 C249.14 725.11 246.83 720.98 244.44 716.71 C242.69 713.41 241.37 710.04 240.04 706.55 C238.51 702.8 236.65 699.23 234.82 695.62 C228.68 683.47 223.01 671.08 217.38 658.69 C214 651.27 210.53 643.92 206.84 636.65 C203.81 630.67 200.96 624.61 198.12 618.54 C195.82 613.6 193.47 608.67 191.12 603.75 C190.7 602.87 190.28 601.99 189.85 601.08 C189 599.28 188.14 597.49 187.28 595.69 C186.02 593.04 184.75 590.39 183.49 587.73 C183.08 586.87 182.67 586.01 182.25 585.12 C181.41 583.37 180.58 581.63 179.75 579.88 C177.65 575.47 175.55 571.05 173.43 566.64 C169.46 558.37 165.56 550.09 161.88 541.69 C159.16 535.49 156.27 529.41 153.21 523.38 C150.26 517.56 147.43 511.7 144.62 505.81 C144.16 504.84 143.7 503.86 143.22 502.86 C140.91 498.03 138.62 493.19 136.32 488.35 C135.46 486.55 134.61 484.74 133.75 482.94 C133.34 482.07 132.93 481.2 132.5 480.31 C130.11 475.27 127.65 470.28 125.12 465.31 C122.82 460.76 120.85 456.19 119.03 451.43 C117.45 447.7 115.42 444.24 113.44 440.72 C111.69 437.41 110.39 434.02 109.06 430.53 C107.89 427.73 106.49 425.15 105 422.5 C102.64 418.29 100.78 414.09 99.05 409.58 C97.01 404.57 94.46 399.81 92 395 C88.38 387.92 84.87 380.89 82.01 373.46 C80.47 369.7 78.6 366.13 76.76 362.52 C74.65 358.29 72.63 354.03 70.62 349.75 C67.79 343.73 64.89 337.75 61.88 331.81 C58.86 325.87 56.13 319.84 53.5 313.72 C50.9 307.69 48 301.84 45 296 C38.14 282.58 38.14 282.58 36.06 277.12 C34.11 272.03 31.66 267.22 29.2 262.36 C26.76 257.55 24.41 252.7 22.12 247.81 C21.8 247.12 21.47 246.42 21.14 245.7 C20.8 244.99 20.47 244.27 20.12 243.54 C16.98 236.81 13.78 230.12 10.58 223.42 C8.85 219.78 7.11 216.13 5.39 212.49 C4.53 210.68 3.67 208.87 2.81 207.06 C2.4 206.19 1.98 205.31 1.55 204.41 C-0.86 199.34 -3.33 194.31 -5.88 189.31 C-8.24 184.64 -10.28 179.95 -12.17 175.07 C-13.2 172.49 -14.31 170.21 -16 168 C-16.99 168 -17.98 168 -19 168 Z M-319 471 C-326.24 476.77 -333.7 482.22 -341.18 487.67 C-342.85 488.89 -344.53 490.12 -346.2 491.34 C-353.85 496.94 -353.85 496.94 -357.69 499.38 C-358.45 499.91 -359.21 500.45 -360 501 C-360 501.66 -360 502.32 -360 503 C-360.72 503.27 -361.44 503.54 -362.19 503.81 C-365 505 -367.48 506.27 -370 508 C-370 508.66 -370 509.32 -370 510 C-372.33 511.21 -374.5 512.17 -377 513 C-377 513.66 -377 514.32 -377 515 C-377.6 515.1 -378.2 515.21 -378.81 515.31 C-381.32 516.1 -382.21 517.14 -384 519 C-385.49 519.5 -385.49 519.5 -387 520 C-387 520.66 -387 521.32 -387 522 C-388 522.34 -388 522.34 -389.02 522.68 C-392.89 524.39 -396.21 526.67 -399.69 529.06 C-406.82 533.91 -406.82 533.91 -409 535 C-409 535.66 -409 536.32 -409 537 C-411.65 538.08 -414.28 539.09 -417 540 C-417 540.66 -417 541.32 -417 542 C-417.73 542.28 -418.47 542.55 -419.23 542.83 C-421.82 543.92 -424.03 545.14 -426.4 546.64 C-427.21 547.16 -428.02 547.67 -428.85 548.2 C-429.68 548.73 -430.52 549.26 -431.38 549.81 C-432.2 550.33 -433.02 550.86 -433.88 551.39 C-437.57 553.74 -441.22 556.12 -444.77 558.7 C-447.58 560.7 -450.32 562.35 -453.38 563.94 C-456.88 565.81 -460.22 567.75 -463.5 570 C-469.06 573.81 -474.98 576.99 -481 580 C-481 580.66 -481 581.32 -481 582 C-481.87 582.27 -482.73 582.54 -483.62 582.81 C-486.92 583.97 -489.91 585.38 -493 587 C-493 587.66 -493 588.32 -493 589 C-493.72 589.11 -494.44 589.22 -495.19 589.33 C-498.23 590.05 -500.32 591.15 -502.98 592.77 C-503.92 593.33 -504.86 593.89 -505.82 594.46 C-506.79 595.05 -507.75 595.64 -508.75 596.25 C-510.66 597.4 -512.57 598.55 -514.48 599.7 C-515.41 600.26 -516.33 600.82 -517.29 601.39 C-522.75 604.63 -528.13 607.67 -534.01 610.07 C-536.67 611.32 -539.16 612.81 -541.69 614.31 C-546.59 617.22 -551.56 619.83 -556.68 622.34 C-560.61 624.31 -564.49 626.37 -568.38 628.44 C-578.11 633.62 -587.85 638.69 -598 643 C-606.79 646.92 -614.78 651.6 -622 658 C-622 658.66 -622 659.32 -622 660 C-622.99 660.33 -623.98 660.66 -625 661 C-627.26 663.57 -627.26 663.57 -629.5 666.69 C-630.27 667.72 -631.05 668.76 -631.84 669.82 C-634.91 674.34 -637 677.47 -637 683 C-637.66 683 -638.32 683 -639 683 C-646.1 705.01 -642.01 725.91 -632 746 C-631.56 746.89 -631.13 747.77 -630.68 748.68 C-628.89 752.28 -627.07 755.86 -625.24 759.44 C-619.92 769.92 -619.92 769.92 -618.5 774 C-616.09 780.9 -612.38 787.34 -609.06 793.84 C-605.75 800.32 -602.63 806.76 -600.03 813.56 C-598.46 817.29 -596.47 820.76 -594.46 824.26 C-592.77 827.43 -591.41 830.69 -590 834 C-588.85 836.32 -587.68 838.63 -586.5 840.94 C-582.82 848.19 -582.82 848.19 -581.5 852 C-579.53 857.65 -576.61 862.91 -573.89 868.23 C-573.06 869.88 -572.26 871.55 -571.46 873.22 C-566.67 883.17 -561.26 892.57 -552 899 C-551.34 899 -550.68 899 -550 899 C-550 899.66 -550 900.32 -550 901 C-537.78 910.22 -523.51 914.37 -508.44 914.25 C-507.44 914.26 -506.43 914.27 -505.4 914.27 C-499.89 914.26 -495.25 913.84 -490 912 C-488.85 911.62 -487.69 911.24 -486.5 910.85 C-480.27 908.67 -474.62 906.44 -469 903 C-467.33 902.27 -465.66 901.54 -463.98 900.83 C-460.47 899.35 -456.98 897.8 -453.5 896.25 C-452.71 895.9 -451.92 895.55 -451.11 895.19 C-446.19 893 -441.31 890.75 -436.44 888.44 C-425.99 883.5 -415.24 879.27 -404.49 875.02 C-401.45 873.77 -398.45 872.45 -395.44 871.12 C-389.43 868.53 -383.36 866.31 -377.18 864.18 C-372.05 862.4 -367.06 860.41 -362.07 858.28 C-345.39 851.34 -328.15 845.66 -311 840 C-306.68 838.57 -302.37 837.13 -298.06 835.68 C-289.1 832.66 -280.12 829.72 -271.12 826.81 C-269.59 826.31 -269.59 826.31 -268.03 825.8 C-261.95 823.85 -255.87 822.15 -249.66 820.67 C-245.69 819.67 -241.86 818.36 -238 817 C-227.83 813.43 -217.43 811.05 -206.91 808.75 C-204.06 808.09 -204.06 808.09 -201.71 807.05 C-197.76 805.52 -193.69 804.64 -189.56 803.69 C-188.65 803.47 -187.73 803.26 -186.79 803.04 C-179.08 801.23 -171.37 799.49 -163.65 797.75 C-157.07 796.26 -150.53 794.69 -144 793 C-143.56 788.4 -145.07 785.32 -147.19 781.38 C-147.93 779.95 -148.66 778.52 -149.4 777.09 C-149.81 776.29 -150.22 775.49 -150.65 774.66 C-153.28 769.48 -155.79 764.24 -158.31 759 C-158.87 757.85 -159.42 756.69 -160 755.5 C-164.17 746.81 -168.2 738.07 -172.18 729.3 C-175.01 723.09 -177.97 716.97 -181.07 710.89 C-184.23 704.67 -187.06 698.3 -189.86 691.91 C-191.45 688.29 -193.07 684.76 -195.08 681.35 C-196.63 678.65 -197.9 676.02 -199.09 673.15 C-201.32 667.89 -203.78 662.74 -206.19 657.56 C-206.48 656.94 -206.77 656.31 -207.07 655.66 C-210.65 647.94 -214.31 640.26 -218.18 632.67 C-221.21 626.69 -223.92 620.56 -226.64 614.43 C-229.3 608.46 -232.15 602.62 -235.12 596.8 C-237.42 592.26 -239.5 587.67 -241.5 583 C-244.05 577.05 -246.82 571.25 -249.74 565.48 C-254.18 556.72 -258.36 547.84 -262.58 538.97 C-263.96 536.09 -265.34 533.21 -266.73 530.33 C-271.64 520.11 -276.46 509.86 -281.19 499.56 C-285.61 489.94 -290.19 480.43 -295 471 C-296.17 468.67 -297.34 466.33 -298.5 464 C-298.98 463.03 -299.47 462.06 -299.97 461.06 C-300.31 460.38 -300.65 459.7 -301 459 C-307.18 459 -314.47 467.34 -319 471 Z M-109.23 822.37 C-110.32 822.61 -110.32 822.61 -111.43 822.85 C-113.83 823.37 -116.23 823.9 -118.62 824.44 C-120.29 824.8 -121.95 825.17 -123.61 825.53 C-136.21 828.31 -148.75 831.28 -161.26 834.38 C-166.68 835.72 -172.07 837.05 -177.55 838.1 C-181.16 838.8 -184.52 839.8 -188 841 C-191.2 841.86 -194.41 842.65 -197.62 843.44 C-198.51 843.66 -199.4 843.88 -200.32 844.11 C-204.09 845.05 -207.87 845.97 -211.66 846.85 C-217.81 848.3 -223.32 850.23 -229 853 C-229.21 861.41 -228.57 869.59 -227.62 877.94 C-227.5 879.12 -227.37 880.31 -227.24 881.53 C-226.14 891.59 -224.76 901.56 -222.25 911.38 C-222.09 912.02 -221.92 912.66 -221.75 913.32 C-219.29 922.91 -216.63 932.45 -214 942 C-209.62 941.47 -206.54 940.43 -202.75 938.19 C-199.22 936.18 -195.8 934.43 -192 933 C-187.27 931.2 -182.99 928.84 -178.58 926.37 C-176.42 925.22 -174.37 924.31 -172.06 923.5 C-160.38 919.29 -154.16 915.04 -148 904.06 C-147.37 903 -146.74 901.94 -146.1 900.85 C-144.37 897.92 -142.67 894.97 -141 892 C-137.78 886.33 -134.47 880.72 -131.12 875.12 C-130.62 874.28 -130.12 873.43 -129.6 872.56 C-126.63 867.6 -123.55 862.75 -120.3 857.97 C-118.38 855.06 -116.7 852.05 -115 849 C-114.63 848.37 -114.25 847.73 -113.87 847.08 C-111.73 843.77 -111.73 843.77 -111 840 C-110.34 840 -109.68 840 -109 840 C-108.61 839.29 -108.23 838.57 -107.83 837.84 C-104.94 832.53 -102.03 827.24 -99 822 C-102.77 820.74 -105.47 821.53 -109.23 822.37 Z M-273.69 866.08 C-277.87 867.75 -282.24 868.82 -286.57 870.03 C-293.44 871.97 -300.11 874.39 -306.8 876.84 C-310.59 878.21 -314.39 879.54 -318.19 880.88 C-324.77 883.18 -331.31 885.59 -337.82 888.08 C-340.33 889.04 -342.77 889.95 -345.39 890.54 C-345.92 890.69 -346.45 890.84 -347 891 C-348.4 893.81 -348.13 896.14 -348.13 899.27 C-348.13 900.56 -348.14 901.86 -348.14 903.19 C-348.13 904.58 -348.13 905.98 -348.12 907.38 C-348.12 908.07 -348.12 908.77 -348.12 909.49 C-348.16 929.83 -348.16 929.83 -346 950 C-345.88 952.25 -345.77 954.5 -345.69 956.75 C-345.26 965.46 -343.87 974 -342.46 982.6 C-341.64 987.62 -340.91 992.59 -340.5 997.67 C-340.06 1002.9 -339.12 1007.88 -338 1013 C-337.72 1014.34 -337.43 1015.68 -337.15 1017.03 C-336.33 1020.95 -335.49 1024.87 -334.65 1028.79 C-334.3 1030.42 -333.95 1032.05 -333.61 1033.69 C-331.66 1042.89 -329.57 1051.97 -326.88 1060.99 C-325.99 1064.04 -325.2 1067.1 -324.44 1070.19 C-321.62 1081.64 -321.62 1081.64 -317.81 1092.79 C-316.78 1095.6 -315.93 1098.45 -315.06 1101.31 C-313.51 1106.44 -311.79 1111.46 -309.92 1116.48 C-309.12 1118.68 -308.39 1120.89 -307.69 1123.12 C-305.96 1128.41 -303.76 1133.5 -301.62 1138.63 C-299.94 1142.66 -298.36 1146.69 -296.94 1150.81 C-295.17 1155.84 -292.82 1160.48 -290.38 1165.21 C-289.21 1167.58 -288.21 1169.89 -287.31 1172.38 C-285.27 1178.6 -285.27 1178.6 -281.12 1183.44 C-275.47 1184.93 -269.71 1181.24 -264.69 1178.94 C-263.35 1178.33 -263.35 1178.33 -261.98 1177.71 C-256.02 1174.98 -250.13 1172.12 -244.27 1169.16 C-229.53 1161.69 -214.54 1154.76 -199.5 1147.92 C-193.22 1145.05 -187.03 1142.06 -180.88 1138.92 C-175.6 1136.24 -170.22 1133.83 -164.81 1131.44 C-152.11 1126.48 -152.11 1126.48 -141 1119 C-140.96 1117 -140.96 1115 -141 1113 C-141.66 1113 -142.32 1113 -143 1113 C-143 1112.34 -143 1111.68 -143 1111 C-144.68 1109.22 -144.68 1109.22 -146.81 1107.44 C-147.52 1106.82 -148.23 1106.2 -148.96 1105.56 C-151.01 1103.82 -151.01 1103.82 -154 1103 C-154 1102.34 -154 1101.68 -154 1101 C-154.66 1101 -155.32 1101 -156 1101 C-156 1100.34 -156 1099.68 -156 1099 C-157.36 1097.66 -157.36 1097.66 -159.12 1096.31 C-162.43 1093.6 -165.09 1090.67 -167.74 1087.32 C-168.15 1086.88 -168.57 1086.45 -169 1086 C-169.66 1086 -170.32 1086 -171 1086 C-171 1085.34 -171 1084.68 -171 1084 C-171.66 1084 -172.32 1084 -173 1084 C-173.25 1083.43 -173.5 1082.86 -173.75 1082.27 C-175.19 1079.65 -176.89 1077.8 -178.94 1075.62 C-182.77 1071.45 -186.37 1067.14 -189.88 1062.69 C-190.57 1061.81 -190.57 1061.81 -191.28 1060.91 C-193.26 1058.37 -195.08 1055.87 -196.7 1053.08 C-197.13 1052.39 -197.56 1051.71 -198 1051 C-198.66 1051 -199.32 1051 -200 1051 C-200.23 1050.32 -200.45 1049.64 -200.69 1048.94 C-202.09 1045.81 -203.81 1043.36 -205.88 1040.65 C-207 1039 -207 1039 -208 1036 C-208.66 1036 -209.32 1036 -210 1036 C-210.27 1035.27 -210.53 1034.55 -210.8 1033.8 C-212 1030.99 -213.41 1028.71 -215.12 1026.19 C-219.32 1019.72 -222.65 1012.93 -226.02 1006.01 C-226.96 1004.08 -227.92 1002.16 -228.89 1000.25 C-233.82 990.49 -238.47 980.8 -242.1 970.47 C-242.81 968.51 -243.64 966.59 -244.5 964.69 C-247.3 957.8 -249.03 950.54 -251 943.38 C-251.9 940.13 -251.9 940.13 -252.99 937.6 C-253.97 935.08 -254.63 932.68 -255.22 930.05 C-255.43 929.12 -255.64 928.19 -255.86 927.23 C-256.07 926.27 -256.28 925.3 -256.5 924.31 C-256.71 923.37 -256.93 922.43 -257.14 921.46 C-259.35 911.63 -261.28 901.86 -262.56 891.88 C-262.69 890.88 -262.82 889.89 -262.95 888.86 C-264 880.58 -264.65 872.34 -265 864 C-268.78 864 -270.38 864.57 -273.69 866.08 Z " fill="#000100" transform="translate(694,34)"/>
<path d="M0 0 C1.39 0.25 1.39 0.25 2.81 0.5 C7.25 3.54 9.36 8.45 10.64 13.57 C11.59 20.31 10.18 24.73 6.39 30.42 C3.3 33.76 -0.02 35.48 -4.06 37.5 C-4.83 37.89 -5.59 38.29 -6.38 38.69 C-11.23 41.17 -16.12 43.51 -21.1 45.71 C-24.72 47.32 -28.3 49 -31.88 50.69 C-32.59 51.03 -33.31 51.36 -34.05 51.71 C-47.18 57.91 -60.28 64.17 -73.38 70.44 C-74.33 70.89 -75.29 71.35 -76.27 71.82 C-81.09 74.13 -85.91 76.44 -90.72 78.75 C-101.6 83.98 -112.52 89.09 -123.5 94.08 C-129.77 96.95 -135.96 99.93 -142.1 103.07 C-148.44 106.28 -154.93 109.17 -161.44 112.03 C-162.66 112.57 -162.66 112.57 -163.89 113.12 C-164.61 113.43 -165.34 113.75 -166.08 114.07 C-168.25 115.06 -168.25 115.06 -171 117 C-177.7 118.04 -183.37 117.24 -189.12 113.62 C-192.25 110.92 -193.68 107.86 -195 104 C-195.29 103.2 -195.58 102.39 -195.88 101.56 C-196.14 96.06 -194.92 91.47 -192 86.81 C-185.56 80.08 -176.39 76.74 -168.01 73.1 C-163.03 70.93 -158.15 68.65 -153.31 66.19 C-137.8 58.32 -122.04 50.98 -106.21 43.77 C-100.53 41.18 -94.92 38.49 -89.36 35.65 C-84.37 33.2 -79.31 30.92 -74.25 28.62 C-67.47 25.54 -60.71 22.43 -54.06 19.06 C-47.14 15.55 -40.17 12.13 -33.19 8.75 C-32.15 8.24 -31.11 7.73 -30.04 7.21 C-10.46 -2.24 -10.46 -2.24 0 0 Z " fill="#000100" transform="translate(1192,299)"/>
<path d="M0 0 C0.65 -0 1.31 -0 1.98 -0 C3.38 -0 4.77 -0 6.16 0 C8.25 0.01 10.33 0 12.42 -0 C19.62 -0.01 26.75 0.23 33.94 0.85 C38.24 1.19 42.54 1.42 46.85 1.63 C48.08 1.69 48.08 1.69 49.33 1.76 C52.72 1.93 56.12 2.09 59.51 2.26 C62.02 2.38 64.53 2.51 67.04 2.63 C68.18 2.69 68.18 2.69 69.34 2.74 C73.46 2.95 77.42 3.44 81.48 4.13 C83.44 4.25 85.4 4.33 87.36 4.38 C89.06 4.43 89.06 4.43 90.79 4.47 C92.01 4.51 93.23 4.54 94.48 4.57 C106.24 4.92 117.94 5.57 129.68 6.4 C138.42 7.02 147.16 7.49 155.92 7.79 C156.75 7.82 157.58 7.85 158.43 7.89 C159.14 7.91 159.86 7.93 160.6 7.96 C162.48 8.13 162.48 8.13 165.48 9.13 C167.54 9.21 169.61 9.27 171.67 9.32 C178.17 9.8 182.14 11.22 186.48 16.13 C189.61 20.45 191.17 24.77 190.87 30.12 C189.73 36.06 186.42 41.7 181.48 45.13 C171.06 47.94 160.53 47.05 149.92 46.38 C148.17 46.28 146.41 46.18 144.66 46.08 C141.06 45.88 137.46 45.67 133.86 45.45 C128.64 45.14 123.43 44.86 118.21 44.58 C115.01 44.41 111.81 44.24 108.61 44.07 C107.86 44.03 107.11 43.99 106.34 43.95 C99.15 43.56 92 43.12 84.84 42.35 C80.27 41.93 75.69 41.84 71.11 41.7 C60.68 41.33 50.3 40.66 39.91 39.87 C30.95 39.2 22 38.76 13.03 38.47 C12.11 38.44 11.18 38.41 10.23 38.38 C9.03 38.34 9.03 38.34 7.81 38.31 C5.3 38.12 2.94 37.66 0.48 37.13 C-0.25 37.03 -0.98 36.92 -1.73 36.81 C-7.69 35.81 -11.58 33.77 -15.52 29.13 C-18.31 24.28 -19.46 19.68 -18.52 14.13 C-16.58 8.21 -13.53 4.72 -8.52 1.13 C-5.66 -0.3 -3.2 0 0 0 Z " fill="#000100" transform="translate(1072.51953125,500.8671875)"/>
<path d="M0 0 C5.07 3.07 7.89 5.99 9.34 11.89 C10.64 20.73 8.41 25.8 3.34 32.89 C2.33 34.36 1.33 35.83 0.34 37.3 C-0.75 38.87 -1.83 40.44 -2.91 42.02 C-3.71 43.17 -3.71 43.17 -4.52 44.35 C-5.03 45.07 -5.53 45.79 -6.05 46.52 C-6.74 47.5 -6.74 47.5 -7.43 48.49 C-7.84 48.95 -8.24 49.41 -8.66 49.89 C-9.32 49.89 -9.98 49.89 -10.66 49.89 C-10.97 50.67 -11.28 51.46 -11.6 52.27 C-12.66 54.89 -12.66 54.89 -13.66 56.89 C-14.32 56.89 -14.98 56.89 -15.66 56.89 C-15.97 57.67 -16.28 58.46 -16.6 59.27 C-17.66 61.89 -17.66 61.89 -18.66 63.89 C-19.32 63.89 -19.98 63.89 -20.66 63.89 C-20.88 64.57 -21.1 65.25 -21.33 65.95 C-23.05 69.75 -25.42 72.74 -27.98 76.02 C-32.57 82.02 -36.94 88.12 -41.16 94.39 C-45.91 101.41 -50.83 108.26 -55.97 114.99 C-58.54 118.3 -58.54 118.3 -60.66 121.89 C-61.32 121.89 -61.98 121.89 -62.66 121.89 C-63.13 123.07 -63.13 123.07 -63.6 124.27 C-64.66 126.89 -64.66 126.89 -65.66 128.89 C-66.32 128.89 -66.98 128.89 -67.66 128.89 C-67.97 129.67 -68.28 130.46 -68.6 131.27 C-69.66 133.89 -69.66 133.89 -70.66 135.89 C-71.32 135.89 -71.98 135.89 -72.66 135.89 C-72.97 136.67 -73.28 137.46 -73.6 138.27 C-74.66 140.89 -74.66 140.89 -75.66 142.89 C-76.32 142.89 -76.98 142.89 -77.66 142.89 C-77.91 143.6 -78.15 144.31 -78.4 145.04 C-79.84 148.3 -81.67 150.76 -83.85 153.58 C-86.82 157.43 -89.63 161.32 -92.29 165.39 C-95.31 169.75 -97.83 171.74 -102.66 173.89 C-103.43 174.34 -104.19 174.8 -104.98 175.27 C-109.47 176.31 -113.38 175.49 -117.66 173.89 C-121.57 171.37 -124.63 168.48 -127.16 164.58 C-128.83 155.63 -127.48 149.51 -122.39 142.01 C-120.99 140.11 -119.55 138.25 -118.1 136.39 C-113.19 130.01 -108.57 123.49 -104.14 116.77 C-103.03 115.11 -101.85 113.49 -100.66 111.89 C-100 111.89 -99.34 111.89 -98.66 111.89 C-98.35 111.11 -98.05 110.32 -97.73 109.52 C-96.66 106.89 -96.66 106.89 -95.66 104.89 C-95 104.89 -94.34 104.89 -93.66 104.89 C-93.35 104.11 -93.05 103.32 -92.73 102.52 C-91.66 99.89 -91.66 99.89 -90.66 97.89 C-90 97.89 -89.34 97.89 -88.66 97.89 C-88.35 97.11 -88.05 96.32 -87.73 95.52 C-86.66 92.89 -86.66 92.89 -85.66 90.89 C-85 90.89 -84.34 90.89 -83.66 90.89 C-83.26 89.78 -83.26 89.78 -82.84 88.64 C-81.73 86.03 -80.53 84.1 -78.83 81.84 C-78.26 81.09 -77.7 80.34 -77.12 79.56 C-76.52 78.76 -75.91 77.96 -75.29 77.14 C-74.01 75.43 -72.74 73.73 -71.47 72.02 C-70.83 71.16 -70.19 70.3 -69.53 69.42 C-66.77 65.68 -64.08 61.88 -61.41 58.08 C-60.93 57.39 -60.45 56.7 -59.95 55.99 C-58.99 54.63 -58.04 53.26 -57.08 51.9 C-54.34 48.01 -51.56 44.14 -48.78 40.27 C-47.04 37.83 -45.33 35.38 -43.66 32.89 C-43 32.89 -42.34 32.89 -41.66 32.89 C-41.48 31.99 -41.48 31.99 -41.29 31.08 C-40.66 28.89 -40.66 28.89 -38.66 25.89 C-38 25.89 -37.34 25.89 -36.66 25.89 C-36.41 25.17 -36.15 24.45 -35.89 23.71 C-34.59 20.72 -33.01 18.34 -31.1 15.7 C-28.69 12.41 -28.69 12.41 -26.66 8.89 C-26 8.89 -25.34 8.89 -24.66 8.89 C-24.5 8.17 -24.33 7.45 -24.16 6.7 C-19.5 -2.04 -8.66 -3.61 0 0 Z " fill="#000100" transform="translate(1066.6640625,119.109375)"/>
<path d="" fill="#000100" transform="translate(0,0)"/>
<path d="" fill="#000100" transform="translate(0,0)"/>
</svg>
